<svg id="Layer_1" data-name="Layer 1" xmlns="http://www.w3.org/2000/svg" viewBox="0 0 70.45 70.45"><defs><style>.cls-1{fill:#fff;}.cls-1,.cls-11{stroke:#000;}.cls-1,.cls-10,.cls-11,.cls-12,.cls-13,.cls-2,.cls-3,.cls-4,.cls-5,.cls-6,.cls-7,.cls-8,.cls-9{stroke-miterlimit:10;}.cls-10,.cls-11,.cls-12,.cls-13,.cls-2,.cls-3,.cls-4,.cls-5,.cls-6,.cls-7,.cls-8,.cls-9{fill:none;stroke-linecap:round;stroke-width:3.93px;}.cls-2{stroke:#363636;}.cls-3{stroke:#494848;}.cls-4{stroke:#5a5b5b;}.cls-5{stroke:#6c6c6c;}.cls-6{stroke:#7f7f7f;}.cls-7{stroke:#8f8f8f;}.cls-8{stroke:#a1a0a0;}.cls-9{stroke:#b3b3b4;}.cls-10{stroke:#c6c5c4;}.cls-12{stroke:#131313;}.cls-13{stroke:#242424;}.cls-14{fill:#cb272b;}</style></defs><title>no_spinners</title><circle class="cls-1" cx="35.22" cy="35.22" r="31.5"/><line class="cls-2" x1="33.51" y1="14.41" x2="34.12" y2="21.74"/><line class="cls-3" x1="23.34" y1="18.06" x2="27.51" y2="24.09"/><line class="cls-4" x1="16.35" y1="26.32" x2="22.99" y2="29.45"/><line class="cls-5" x1="14.41" y1="36.96" x2="21.74" y2="36.35"/><line class="cls-6" x1="18.06" y1="47.14" x2="24.09" y2="42.94"/><line class="cls-7" x1="26.32" y1="54.13" x2="29.45" y2="47.49"/><line class="cls-8" x1="36.96" y1="56.04" x2="36.35" y2="48.73"/><line class="cls-9" x1="47.14" y1="52.39" x2="42.96" y2="46.36"/><line class="cls-10" x1="54.13" y1="44.15" x2="47.49" y2="41.02"/><line class="cls-11" x1="56.04" y1="33.51" x2="48.73" y2="34.12"/><line class="cls-12" x1="52.39" y1="23.34" x2="46.36" y2="27.51"/><line class="cls-13" x1="44.15" y1="16.35" x2="41.02" y2="22.99"/><path class="cls-14" d="M35.22,0A35.22,35.22,0,1,0,70.45,35.22,35.29,35.29,0,0,0,35.22,0Zm0,63.14a27.93,27.93,0,0,1-22.48-44.5L32.27,38.17,51.8,57.7A27.91,27.91,0,0,1,35.22,63.14ZM57.7,51.8,38.17,32.27,18.68,12.75A27.62,27.62,0,0,1,35.26,7.31,27.94,27.94,0,0,1,63.17,35.22,28.24,28.24,0,0,1,57.7,51.8Z"/></svg>