<svg xmlns="http://www.w3.org/2000/svg" viewBox="0 50 400 240" width="400" height="240">
  <rect width="400" height="300" fill="#fff"/>
  <g transform="translate(35,70)">
    <rect x="0" y="0" width="140" height="200" fill="#fd0" stroke="#000" stroke-width="3"/>
    <rect x="12" y="20" width="116" height="100" fill="#0085f1"/>
    <text x="70" y="76" text-anchor="middle" font-family="Arial, sans-serif" font-size="14" fill="#fff" font-weight="bold">Slide 1</text>
    <rect x="12" y="140" width="116" height="10" fill="#000"/>
    <rect x="12" y="156" width="76" height="8" fill="#000"/>
    <text x="70" y="190" text-anchor="middle" font-family="Arial, sans-serif" font-size="11" fill="#000">static (HTML only)</text>
  </g>
  <g stroke="#000" stroke-width="3" fill="none" stroke-linecap="round">
    <path d="M185 165 L200 165"/>
  </g>
  <polygon points="200,160 215,165 200,170" fill="#000"/>
  <g transform="translate(225,70)">
    <rect x="0" y="0" width="140" height="200" fill="#ffa400" stroke="#000" stroke-width="3"/>
    <rect x="12" y="20" width="116" height="100" fill="#0085f1"/>
    <text x="70" y="76" text-anchor="middle" font-family="Arial, sans-serif" font-size="14" fill="#fff" font-weight="bold">1 / 5</text>
    <polygon points="22,70 10,60 10,80" fill="#fff" stroke="#000" stroke-width="2"/>
    <polygon points="118,70 130,60 130,80" fill="#fff" stroke="#000" stroke-width="2"/>
    <circle cx="42" cy="135" r="4" fill="#000"/>
    <circle cx="58" cy="135" r="4" fill="#fff" stroke="#000" stroke-width="1.5"/>
    <circle cx="74" cy="135" r="4" fill="#fff" stroke="#000" stroke-width="1.5"/>
    <circle cx="90" cy="135" r="4" fill="#fff" stroke="#000" stroke-width="1.5"/>
    <circle cx="106" cy="135" r="4" fill="#fff" stroke="#000" stroke-width="1.5"/>
    <rect x="12" y="150" width="116" height="10" fill="#000"/>
    <rect x="12" y="166" width="76" height="8" fill="#000"/>
    <text x="70" y="190" text-anchor="middle" font-family="Arial, sans-serif" font-size="11" fill="#000">interactive (after JS)</text>
  </g>
</svg>
