<svg xmlns="http://www.w3.org/2000/svg" viewBox="0 30 400 240" width="400" height="240">
  <rect width="400" height="300" fill="#fff"/>
  <rect x="0" y="0" width="200" height="300" fill="#f11300" fill-opacity="0.1"/>
  <rect x="200" y="0" width="200" height="300" fill="#00f13e" fill-opacity="0.2"/>
  <g transform="translate(40,90)">
    <rect x="0" y="0" width="120" height="120" fill="#ffa400" stroke="#000" stroke-width="3"/>
    <text x="60" y="68" text-anchor="middle" font-family="Arial, sans-serif" font-size="14" fill="#000" font-weight="bold">Loading...</text>
    <text x="60" y="142" text-anchor="middle" font-family="Arial, sans-serif" font-size="11" fill="#000">abrupt wait</text>
  </g>
  <g stroke="#0085f1" stroke-width="4" fill="none" stroke-linecap="round">
    <path d="M175 150 q25 -25 50 0"/>
    <path d="M175 170 q25 -25 50 0" opacity="0.6"/>
    <path d="M175 190 q25 -25 50 0" opacity="0.3"/>
  </g>
  <g transform="translate(240,90)">
    <rect x="0" y="0" width="120" height="120" fill="#fd0" stroke="#000" stroke-width="3"/>
    <rect x="12" y="16" width="96" height="14" fill="#000"/>
    <rect x="12" y="38" width="76" height="8" fill="#000"/>
    <rect x="12" y="52" width="86" height="8" fill="#000"/>
    <rect x="12" y="78" width="96" height="28" fill="#0085f1"/>
    <text x="60" y="142" text-anchor="middle" font-family="Arial, sans-serif" font-size="11" fill="#000">smooth arrival</text>
  </g>
</svg>
