<?xml version="1.0" encoding="UTF-8" standalone="no"?>
<!DOCTYPE svg PUBLIC "-//W3C//DTD SVG 1.1//EN" "http://www.w3.org/Graphics/SVG/1.1/DTD/svg11.dtd">
<svg width="100%" height="100%" viewBox="0 0 70 61" version="1.1" xmlns="http://www.w3.org/2000/svg" xmlns:xlink="http://www.w3.org/1999/xlink" xml:space="preserve" xmlns:serif="http://www.serif.com/" style="fill-rule:evenodd;clip-rule:evenodd;stroke-linejoin:round;stroke-miterlimit:2;">
    <g id="Artboard1" transform="matrix(1,0,0,1,-3.55271e-15,-4.76374)">
        <rect x="0" y="4.764" width="70" height="60.473" style="fill:none;"/>
        <clipPath id="_clip1">
            <rect x="0" y="4.764" width="70" height="60.473"/>
        </clipPath>
        <g clip-path="url(#_clip1)">
            <g id="v2" transform="matrix(1.1188,0,0,1.09239,-4.15817,1.64071)">
                <g id="cat" transform="matrix(1,0,0,1,-1.61817,-2.0192)">
                    <g transform="matrix(1,0,0,1,1.94568,-3.47442)">
                        <path d="M28.796,50.629C29.299,47.861 30.313,46.763 30.313,46.763C28.093,46.706 25.93,45.909 25.93,45.909C9.82,37.883 22.907,30.471 21.122,26.755C19.337,23.039 21.487,20.125 21.487,20.125C27.644,19.651 26.815,24.103 28.807,22.851C30.568,21.745 34.06,21.971 34.851,22.039C35.641,21.971 39.134,21.745 40.894,22.851C42.886,24.103 42.058,19.651 48.215,20.125C48.215,20.125 50.364,23.039 48.579,26.755C46.794,30.471 59.882,37.883 43.772,45.909C43.772,45.909 41.609,46.706 39.389,46.763C39.389,46.763 41.893,49.478 40.983,57.123L40.413,60.898L34.851,60.711L29.288,60.898L28.719,57.123C28.603,56.151 28.543,55.259 28.525,54.443C26.757,54.548 23.443,54.541 21.656,53.247C21.656,53.247 20.746,52.992 20.09,50.66C19.434,48.328 17.212,47.418 17.212,47.418C17.212,47.418 15.171,46.288 16.483,45.96C16.483,45.96 18.888,44.758 21.037,47.746C23.187,50.733 23.041,50.114 24.207,50.769C25.151,51.301 27.818,50.827 28.796,50.629ZM25.571,51.407C26.027,51.435 26.389,51.593 26.379,51.76C26.369,51.927 25.99,52.04 25.534,52.012C25.078,51.985 24.716,51.827 24.726,51.66C24.736,51.493 25.115,51.38 25.571,51.407ZM27.607,51.379C28.061,51.327 28.445,51.42 28.464,51.586C28.483,51.752 28.13,51.929 27.676,51.981C27.222,52.033 26.838,51.94 26.819,51.774C26.8,51.608 27.153,51.431 27.607,51.379ZM23.563,50.958C23.976,51.153 24.254,51.434 24.182,51.585C24.111,51.737 23.718,51.701 23.304,51.507C22.891,51.312 22.613,51.031 22.685,50.88C22.756,50.728 23.149,50.763 23.563,50.958ZM22.107,49.857C22.364,50.171 22.48,50.502 22.365,50.596C22.25,50.69 21.948,50.512 21.691,50.198C21.434,49.885 21.318,49.554 21.433,49.459C21.548,49.365 21.85,49.543 22.107,49.857ZM21.138,48.422C21.255,48.745 21.254,49.041 21.136,49.084C21.018,49.127 20.827,48.9 20.71,48.577C20.593,48.254 20.594,47.958 20.712,47.915C20.83,47.872 21.021,48.099 21.138,48.422ZM20.151,47.219C20.342,47.435 20.433,47.666 20.354,47.736C20.275,47.806 20.055,47.688 19.865,47.472C19.674,47.256 19.583,47.024 19.662,46.954C19.741,46.884 19.96,47.003 20.151,47.219ZM18.99,46.363C19.234,46.516 19.387,46.713 19.331,46.802C19.275,46.892 19.031,46.84 18.787,46.686C18.543,46.533 18.391,46.336 18.447,46.247C18.503,46.158 18.746,46.209 18.99,46.363Z" style="fill:white;"/>
                    </g>
                    <g transform="matrix(0.95901,-0.137015,0.117822,0.824669,0.0680271,9.91705)">
                        <ellipse cx="41.542" cy="34.012" rx="5.152" ry="4.099"/>
                    </g>
                    <g transform="matrix(-0.95901,-0.137015,-0.117822,0.824669,73.3591,9.91705)">
                        <ellipse cx="41.542" cy="34.012" rx="5.152" ry="4.099"/>
                    </g>
                    <g transform="matrix(1,0,0,1,1.84549,-2.60916)">
                        <ellipse cx="40.682" cy="35.845" rx="1.617" ry="2.732" style="fill:white;"/>
                    </g>
                    <g transform="matrix(1,0,0,1,-9.48486,-2.60916)">
                        <ellipse cx="40.682" cy="35.845" rx="1.617" ry="2.732" style="fill:white;"/>
                    </g>
                </g>
                <g transform="matrix(0.957862,0,0,0.957862,1.47482,1.31626)">
                    <path d="M14.153,60.134C6.938,54.141 2.34,45.103 2.34,35C2.34,16.975 16.975,2.34 35,2.34C53.025,2.34 67.66,16.975 67.66,35C67.66,45.103 63.062,54.141 55.847,60.134L55.847,50.86C59.204,46.455 61.197,40.958 61.197,35C61.197,20.541 49.459,8.803 35,8.803C20.541,8.803 8.803,20.541 8.803,35C8.803,40.958 10.796,46.455 14.153,50.86L14.153,60.134Z" style="fill:white;"/>
                </g>
            </g>
        </g>
    </g>
</svg>
