<?xml version="1.0" encoding="UTF-8"?>
<svg xmlns="http://www.w3.org/2000/svg" viewBox="0 0 520 320" width="520" height="320" font-family="Arial, sans-serif">
  <title>Optimistic Rendering</title>
  <desc>Two flows compared. Left, labeled "pessimistic": a click step, a spinner/wait step, then a filled-heart success state, connected by blue arrows in a vertical sequence. Right, labeled "optimistic": a click step jumping straight to the filled-heart success state, with a small label "reconciles in background".</desc>

  <rect width="520" height="320" fill="#fff"/>

  <!-- Pessimistic flow (left) -->
  <g>
    <rect x="20" y="40" width="220" height="240" fill="#f11300" fill-opacity="0.08" stroke="#000"/>
    <text x="130" y="30" text-anchor="middle" font-size="13" fill="#000">pessimistic</text>

    <!-- step 1: click -->
    <rect x="60" y="56" width="140" height="40" fill="#fff" stroke="#000"/>
    <text x="130" y="73" text-anchor="middle" font-size="12" fill="#000">click ♥</text>
    <text x="130" y="89" text-anchor="middle" font-size="10" fill="#000" opacity="0.6">user input</text>

    <!-- arrow -->
    <line x1="130" y1="100" x2="130" y2="124" stroke="#0085f1" stroke-width="2"/>
    <polygon points="126,120 134,120 130,128" fill="#0085f1"/>

    <!-- step 2: wait/spinner -->
    <rect x="60" y="132" width="140" height="56" fill="#fff" stroke="#000"/>
    <g transform="translate(96,160)">
      <circle cx="0" cy="0" r="9" fill="none" stroke="#000" stroke-width="2.5" stroke-opacity="0.2"/>
      <path d="M 0 -9 A 9 9 0 0 1 9 0" fill="none" stroke="#000" stroke-width="2.5" stroke-linecap="round"/>
    </g>
    <text x="118" y="156" font-size="11" fill="#000">waiting…</text>
    <text x="118" y="170" font-size="10" fill="#000" opacity="0.6">round-trip</text>

    <!-- arrow -->
    <line x1="130" y1="192" x2="130" y2="216" stroke="#0085f1" stroke-width="2"/>
    <polygon points="126,212 134,212 130,220" fill="#0085f1"/>

    <!-- step 3: filled state -->
    <rect x="60" y="224" width="140" height="40" fill="#fff" stroke="#000"/>
    <text x="130" y="241" text-anchor="middle" font-size="12" fill="#000">♥ filled</text>
    <text x="130" y="257" text-anchor="middle" font-size="10" fill="#000" opacity="0.6">success state</text>
  </g>

  <!-- Optimistic flow (right) -->
  <g>
    <rect x="280" y="40" width="220" height="240" fill="#00f13e" fill-opacity="0.12" stroke="#000"/>
    <text x="390" y="30" text-anchor="middle" font-size="13" fill="#000">optimistic</text>

    <!-- step 1: click -->
    <rect x="320" y="56" width="140" height="40" fill="#fff" stroke="#000"/>
    <text x="390" y="73" text-anchor="middle" font-size="12" fill="#000">click ♥</text>
    <text x="390" y="89" text-anchor="middle" font-size="10" fill="#000" opacity="0.6">user input</text>

    <!-- arrow direct to success -->
    <line x1="390" y1="100" x2="390" y2="148" stroke="#0085f1" stroke-width="2"/>
    <polygon points="386,144 394,144 390,152" fill="#0085f1"/>

    <!-- step 2: success state immediately -->
    <rect x="320" y="156" width="140" height="48" fill="#fff" stroke="#000"/>
    <text x="390" y="178" text-anchor="middle" font-size="13" fill="#000">♥ filled</text>
    <text x="390" y="194" text-anchor="middle" font-size="10" fill="#000" opacity="0.6">shown immediately</text>

    <!-- background reconcile note -->
    <rect x="320" y="220" width="140" height="44" fill="#fff" stroke="#000" stroke-dasharray="3 2"/>
    <text x="390" y="240" text-anchor="middle" font-size="10" fill="#000" opacity="0.7">reconciles in</text>
    <text x="390" y="254" text-anchor="middle" font-size="10" fill="#000" opacity="0.7">background</text>
  </g>

  <!-- Wordmark -->
  <text x="510" y="312" text-anchor="end" font-size="9" fill="#000" opacity="0.25">SPEEDPATTERNS.COM</text>
</svg>
