<svg xmlns="http://www.w3.org/2000/svg" viewBox="0 50 400 250" width="400" height="250">
  <rect width="400" height="300" fill="#fff" />
  <g transform="translate(40,60)">
    <circle cx="40" cy="40" r="32" fill="#fff" stroke="#000" stroke-width="3" />
    <circle cx="40" cy="40" r="12" fill="#000" />
    <text x="40" y="94" text-anchor="middle" font-family="Arial, sans-serif" font-size="13" fill="#000"
      font-weight="bold">SEE</text>
    <text x="40" y="110" text-anchor="middle" font-family="Arial, sans-serif" font-size="10" fill="#000">page is
      painted</text>
  </g>
  <g stroke="#0085f1" stroke-width="3" fill="none" stroke-linecap="round">
    <path d="M85 100 L165 100" />
  </g>
  <polygon points="165,95 178,100 165,105" fill="#0085f1" />
  <g transform="translate(180,72)">
    <rect x="0" y="0" width="120" height="56" rx="6" fill="#fafafa" stroke="#888" stroke-width="1" />
    <text x="60" y="34" text-anchor="middle" font-family="Arial, sans-serif" font-size="16" fill="#000"
      font-weight="bold">Click me</text>
    <text x="60" y="82" text-anchor="middle" font-family="Arial, sans-serif" font-size="13" fill="#000"
      font-weight="bold">DO</text>
    <text x="60" y="98" text-anchor="middle" font-family="Arial, sans-serif" font-size="10" fill="#000">page should
      respond</text>
  </g>
  <g transform="translate(310,60)">
    <text x="30" y="56" text-anchor="middle" font-family="Arial, sans-serif" font-size="44" fill="#f11300"
      font-weight="bold">!</text>
    <text x="30" y="94" text-anchor="middle" font-family="Arial, sans-serif" font-size="11" fill="#000"
      font-weight="bold">but...</text>
    <text x="30" y="110" text-anchor="middle" font-family="Arial, sans-serif" font-size="10" fill="#000">JS is
      late/blocking</text>
  </g>
  <g transform="translate(0,190)">
    <rect x="1" y="0" width="398" height="100" fill="#fff" stroke="#000" stroke-width="2" />
    <text x="10" y="20" font-family="Arial, sans-serif" font-size="12" fill="#000" font-weight="bold">Page paint
      timeline</text>
    <text x="8" y="41" font-family="Arial, sans-serif" font-size="10" fill="#000">Paint</text>
    <rect x="44" y="30" width="24" height="14" fill="#0d8043" stroke="#000" stroke-width="1" />
    <text x="56" y="41" text-anchor="middle" font-family="Arial, sans-serif" font-size="8" fill="#fff"
      font-weight="bold">CSS</text>
    <rect x="68" y="30" width="40" height="14" fill="#a142f4" stroke="#000" stroke-width="1" />
    <text x="16" y="63" font-family="Arial, sans-serif" font-size="10" fill="#000">JS</text>
    <rect x="44" y="52" width="200" height="14" fill="#ffd54f" stroke="#000" stroke-width="1" />
    <text x="144" y="63" text-anchor="middle" font-family="Arial, sans-serif" font-size="9" fill="#000">JS
      loading</text>
    <rect x="244" y="52" width="120" height="14" fill="#ef5350" stroke="#000" stroke-width="1" />
    <text x="304" y="63" text-anchor="middle" font-family="Arial, sans-serif" font-size="9" fill="#000">long task</text>
    <line x1="108" y1="26" x2="108" y2="72" stroke="#000" stroke-width="1" stroke-dasharray="3 2" />
    <text x="108" y="86" text-anchor="middle" font-family="Arial, sans-serif" font-size="10" fill="#000"
      font-weight="bold">visible</text>
    <line x1="364" y1="26" x2="364" y2="72" stroke="#000" stroke-width="1" stroke-dasharray="3 2" />
    <text x="364" y="86" text-anchor="middle" font-family="Arial, sans-serif" font-size="10" fill="#000"
      font-weight="bold">interactive</text>
  </g>
</svg>