<svg xmlns="http://www.w3.org/2000/svg" xml:space="preserve" style="fill-rule:evenodd;clip-rule:evenodd;stroke-linecap:round;stroke-linejoin:round;stroke-miterlimit:1.5" viewBox="0 0 1901 767"><path d="M0 0h2550v3300H0z" style="fill:none" transform="scale(.74517 .23242)"/><path d="M0 0h1900.18v766.971H0z" style="fill:#fff"/><path d="M83.03 498.542h1856.36v289.492H83.03z" style="fill:#00f13e;fill-opacity:.2" transform="translate(-64.393 -75.591)"/><path d="M83.03 498.542h1856.36v289.492H83.03z" style="fill:#f11300;fill-opacity:.1" transform="matrix(1 0 0 1.13167 -64.393 -468.841)"/><path d="M265.389 1424.2h169.672v72.277H265.389z" style="fill:#fff;stroke:#000;stroke-width:1.85px" transform="matrix(3.08646 0 0 .81081 -794.969 -500.552)"/><path d="M265.389 1424.2h169.672v72.277H265.389z" style="fill:#fff;stroke:#000;stroke-width:1.83px" transform="matrix(3.08646 0 0 .90997 -794.969 -1200.317)"/><path d="M250.312 1010.43h1850.93v452.579H250.312z" style="fill:none;stroke:#000;stroke-width:3.48px" transform="matrix(1 0 0 1.36352 -226.249 -1282.4)"/><path d="M1402.96 1698.38h442.091v104.016H1402.96z" style="fill:#fd0" transform="matrix(1.32422 0 0 1 -829.67 -1274.88)"/><path d="M1402.96 1698.38h442.091v104.016H1402.96z" style="fill:#fd0" transform="matrix(1.3233 0 0 1 -714.78 -1379.45)"/><path d="M1402.96 1698.38h442.091v104.016H1402.96z" style="fill:#ffa400" transform="matrix(.25696 0 0 1 196.299 -1274.88)"/><path d="M1402.96 1698.38h442.091v104.016H1402.96z" style="fill:#ffa400" transform="matrix(.25696 0 0 1 667.658 -1379.45)"/><text x="1693.21" y="751.674" style="font-family:&quot;ArialMT&quot;,&quot;Arial&quot;,sans-serif;font-size:33.333px" transform="translate(76.975 -195.978) scale(.53504)">C<tspan x="1718.45px 1745.55px 1770.8px 1792.33px 1815.74px 1840.98px" y="751.674px 751.674px 751.674px 751.674px 751.674px 751.674px">ONTENT</tspan></text><text x="1740.61" y="786.098" style="font-family:&quot;ArialMT&quot;,&quot;Arial&quot;,sans-serif;font-size:33.333px" transform="translate(76.975 -195.978) scale(.53504)">A<tspan x="1764.02px 1789.26px" y="786.098px 786.098px">ND</tspan></text><text x="1708.6" y="820.522" style="font-family:&quot;ArialMT&quot;,&quot;Arial&quot;,sans-serif;font-size:33.333px" transform="translate(76.975 -195.978) scale(.53504)">L<tspan x="1728.31px 1749.24px 1772.65px 1799.75px 1824.99px" y="820.522px 820.522px 820.522px 820.522px 820.522px">AYOUT</tspan></text><text x="1692.91" y="751.674" style="font-family:&quot;ArialMT&quot;,&quot;Arial&quot;,sans-serif;font-size:33.333px" transform="translate(76.975 210.673) scale(.53504)">C<tspan x="1718.15px 1745.25px 1770.5px 1792.03px 1815.43px 1840.68px" y="751.674px 751.674px 751.674px 751.674px 751.674px 751.674px">ONTENT</tspan></text><text x="1612.24" y="751.674" style="font-family:&quot;ArialMT&quot;,&quot;Arial&quot;,sans-serif;font-size:33.333px" transform="translate(663.349 210.673) scale(.53504)">T<tspan x="1631.3px 1654.7px 1678.11px 1700.92px 1710.77px 1736.02px 1763.12px 1792.06px 1815.46px 1835.17px 1858.58px 1880.11px 1890.54px 1917.64px" y="751.674px 751.674px 751.674px 751.674px 751.674px 751.674px 751.674px 751.674px 751.674px 751.674px 751.674px 751.674px 751.674px 751.674px">ASK COMPLETION</tspan></text><text x="1612.24" y="751.674" style="font-family:&quot;ArialMT&quot;,&quot;Arial&quot;,sans-serif;font-size:33.333px" transform="translate(776.54 -159.141) scale(.53504)">T<tspan x="1631.3px 1654.7px 1678.11px 1700.92px 1710.77px 1736.02px 1763.12px 1792.06px 1815.46px 1835.17px 1858.58px 1880.11px 1890.54px 1917.64px" y="751.674px 751.674px 751.674px 751.674px 751.674px 751.674px 751.674px 751.674px 751.674px 751.674px 751.674px 751.674px 751.674px 751.674px">ASK COMPLETION</tspan></text><text x="1599.03" y="751.674" style="font-family:&quot;ArialMT&quot;,&quot;Arial&quot;,sans-serif;font-size:33.333px" transform="translate(-712.2 -159.141) scale(.53504)">N<tspan x="1624.27px 1645.2px 1668.61px 1679.04px 1706.14px 1727.07px 1748.61px 1759.04px 1786.14px 1810.8px 1820.64px 1844.05px 1863.11px 1886.51px 1911.15px 1932.69px" y="751.674px 751.674px 751.674px 751.674px 751.674px 751.674px 751.674px 751.674px 751.674px 751.674px 751.674px 751.674px 751.674px 751.674px 751.674px 751.674px">AVIGATION STARTS</tspan></text><text x="1708.6" y="751.674" style="font-family:&quot;ArialMT&quot;,&quot;Arial&quot;,sans-serif;font-size:33.333px" transform="translate(-397.73 210.673) scale(.53504)">L<tspan x="1728.31px 1749.24px 1772.65px 1799.75px 1824.99px" y="751.674px 751.674px 751.674px 751.674px 751.674px">AYOUT</tspan></text><path d="M1744.11 1071.35V861.674" style="fill:none;stroke:#000;stroke-width:13.93px" transform="matrix(1 0 0 .78129 -715.958 -414.07)"/><path d="M1744.11 1071.35V861.674" style="fill:none;stroke:#000;stroke-width:14.08px" transform="matrix(1 0 0 .75943 -715.958 -229.652)"/><path d="M1744.11 1071.35V861.674" style="fill:none;stroke:#000;stroke-width:14.08px" transform="matrix(1 0 0 .75943 -1193.769 -229.652)"/><path d="M1744.11 1071.35V861.674" style="fill:none;stroke:#00f13e;stroke-width:14.08px" transform="matrix(1 0 0 .75943 -130.533 -229.652)"/><path d="M1744.11 1071.35V861.674" style="fill:none;stroke:#00f13e;stroke-width:14.08px" transform="matrix(1 0 0 .75943 -18.327 -394.728)"/><path d="M1744.11 1071.35V861.674" style="fill:none;stroke:#0085f1;stroke-width:9.61px" transform="matrix(1 0 0 1.544 -1506.078 -1070.772)"/><path d="m1812.476 395.237 37.5 28.125-37.5 28.125v-56.25Z"/><path d="M209.364 423.362H1819.96" style="fill:none;stroke:#000;stroke-width:12.5px;stroke-linecap:butt" transform="matrix(1 0 0 1 .001 -.001)"/><path d="M265.389 1424.2h169.672v72.277H265.389z" style="fill:#fff;stroke:#000;stroke-width:4.17px" transform="matrix(1 0 0 1 -226.25 -1037.395)"/><text x="989.902" y="1191.53" style="font-family:&quot;ArialMT&quot;,&quot;Arial&quot;,sans-serif;font-size:50px" transform="matrix(1 0 0 1 -927.528 -750.685)">T<tspan x="1022.2px 1037.85px 1081.26px" y="1191.53px 1191.53px 1191.53px">IME</tspan></text><text x="630.954" y="2037.64" style="font-family:&quot;ArialMT&quot;,&quot;Arial&quot;,sans-serif;font-size:33.333px" transform="matrix(1 0 0 1 -551.952 -1341.44)">W<tspan x="663.587px 674.02px 695.553px 720.211px 730.058px 753.463px 776.868px 800.273px 819.984px 843.388px 862.448px 885.853px 903.74px 913.587px 938.831px 962.236px 985.641px 996.074px 1023.17px" y="2037.64px 2037.64px 2037.64px 2037.64px 2037.64px 2037.64px 2037.64px 2037.64px 2037.64px 2037.64px 2037.64px 2037.64px 2037.64px 2037.64px 2037.64px 2037.64px 2037.64px 2037.64px 2037.64px">ITH SKELETAL DESIGN</tspan></text><text x="630.954" y="2037.64" style="font-family:&quot;ArialMT&quot;,&quot;Arial&quot;,sans-serif;font-size:33.333px" transform="matrix(1 0 0 1 -534.268 -1896.812)">N<tspan x="656.198px 682.711px 692.558px 715.963px 739.368px 762.773px 782.484px 805.888px 824.948px 848.353px 866.24px 876.087px 901.331px 924.736px 948.141px 958.574px 985.674px" y="2037.64px 2037.64px 2037.64px 2037.64px 2037.64px 2037.64px 2037.64px 2037.64px 2037.64px 2037.64px 2037.64px 2037.64px 2037.64px 2037.64px 2037.64px 2037.64px 2037.64px">O SKELETAL DESIGN</tspan></text><text x="1732.27" y="751.674" style="font-family:&quot;ArialMT&quot;,&quot;Arial&quot;,sans-serif;font-size:33.333px" transform="translate(818.143 -352.893) scale(.53504)">U<tspan x="1757.51px 1780.91px 1803.73px 1813.58px 1840.68px" y="751.674px 751.674px 751.674px 751.674px 751.674px">SE OF</tspan></text><text x="1692.91" y="786.098" style="font-family:&quot;ArialMT&quot;,&quot;Arial&quot;,sans-serif;font-size:33.333px" transform="translate(818.143 -352.893) scale(.53504)">C<tspan x="1718.15px 1745.25px 1770.5px 1792.03px 1815.43px 1840.68px" y="786.098px 786.098px 786.098px 786.098px 786.098px 786.098px">ONTENT</tspan></text><text x="1671.08" y="751.674" style="font-family:&quot;ArialMT&quot;,&quot;Arial&quot;,sans-serif;font-size:33.333px" transform="translate(477.509 -352.893) scale(.53504)">U<tspan x="1696.32px 1721.56px 1746.81px 1770.21px 1795.46px 1818.86px 1837.92px 1861.33px 1886.57px 1911.81px 1922.25px 1947.49px" y="751.674px 751.674px 751.674px 751.674px 751.674px 751.674px 751.674px 751.674px 751.674px 751.674px 751.674px 751.674px">NDERSTANDING</tspan></text><text x="1580.53" y="786.098" style="font-family:&quot;ArialMT&quot;,&quot;Arial&quot;,sans-serif;font-size:33.333px" transform="translate(477.509 -352.893) scale(.53504)">C<tspan x="1605.78px 1632.88px 1658.12px 1679.65px 1703.06px 1728.3px 1748.65px 1758.49px 1781.9px 1803.43px 1828.68px 1853.92px 1879.16px 1900.7px 1925.94px 1951.19px" y="786.098px 786.098px 786.098px 786.098px 786.098px 786.098px 786.098px 786.098px 786.098px 786.098px 786.098px 786.098px 786.098px 786.098px 786.098px 786.098px">ONTENT STRUCTURE</tspan></text><path d="M933.602 1013.72h53.191v53.191h-53.191z" style="fill:#fd0;stroke:#000;stroke-width:4.17px;stroke-linecap:butt" transform="translate(887.914 -988.21)"/><path d="M933.602 1013.72h53.191v53.191h-53.191z" style="fill:#ffa400;stroke:#000;stroke-width:4.17px;stroke-linecap:butt" transform="translate(610.436 -988.21)"/><text x="343.191" y="970.658" style="font-family:&quot;ArialMT&quot;,&quot;Arial&quot;,sans-serif;font-size:33.333px" transform="matrix(1.71657 0 0 1.71658 -494.34 -1600.2)">R<tspan x="368.436px 391.841px 417.085px 442.329px 467.573px 490.978px 515.636px 525.483px 548.888px 572.293px 597.537px 622.781px 646.186px 669.591px 691.124px 701.557px 728.657px 753.315px 762.56px 784.093px 794.526px 823.465px" y="970.658px 970.658px 970.658px 970.658px 970.658px 970.658px 970.658px 970.658px 970.658px 970.658px 970.658px 970.658px 970.658px 970.658px 970.658px 970.658px 970.658px 970.658px 970.658px 970.658px 970.658px 970.658px">EDUCED PERCEPTION TIME</tspan></text><text x="446.397" y="970.658" style="font-family:&quot;Arial-BoldMT&quot;,&quot;Arial&quot;,sans-serif;font-weight:700;font-size:33.333px;fill-opacity:.4" transform="translate(1117.62 -120.527) scale(.89807)">S<tspan x="469.801px 493.206px 516.611px 540.016px 572.26px 593.191px 615.962px 637.495px 659.028px 682.433px 707.677px 732.921px 755.74px 765.587px 790.831px 817.931px" y="970.658px 970.658px 970.658px 970.658px 970.658px 970.658px 970.658px 970.658px 970.658px 970.658px 970.658px 970.658px 970.658px 970.658px 970.658px 970.658px">PEEDPATTERNS.COM</tspan></text><circle cx="113.564" cy="121.106" r="21.192" transform="translate(-64.393 -75.591)"/></svg>