<svg xmlns="http://www.w3.org/2000/svg" viewBox="0 50 400 240" width="400" height="240">
  <rect width="400" height="300" fill="#fff"/>
  <g transform="translate(35,70)">
    <rect x="0" y="0" width="140" height="200" fill="#fff" stroke="#000" stroke-width="3"/>
    <g transform="translate(20,28)">
      <rect x="0" y="0" width="100" height="56" fill="#fff" stroke="#000" stroke-width="2"/>
      <g fill="#000">
        <rect x="4" y="4" width="6" height="6"/>
        <rect x="16" y="6" width="6" height="6"/>
        <rect x="30" y="2" width="6" height="6"/>
        <rect x="44" y="8" width="6" height="6"/>
        <rect x="58" y="4" width="6" height="6"/>
        <rect x="72" y="10" width="6" height="6"/>
        <rect x="86" y="6" width="6" height="6"/>
        <rect x="6" y="20" width="6" height="6"/>
        <rect x="24" y="26" width="6" height="6"/>
        <rect x="40" y="22" width="6" height="6"/>
        <rect x="56" y="30" width="6" height="6"/>
        <rect x="70" y="24" width="6" height="6"/>
        <rect x="82" y="34" width="6" height="6"/>
        <rect x="10" y="42" width="6" height="6"/>
        <rect x="36" y="40" width="6" height="6"/>
        <rect x="62" y="46" width="6" height="6"/>
        <rect x="80" y="42" width="6" height="6"/>
      </g>
    </g>
    <text x="70" y="120" text-anchor="middle" font-family="Arial, sans-serif" font-size="11" fill="#000" font-weight="bold">image: 142 KB</text>
    <text x="70" y="142" text-anchor="middle" font-family="Arial, sans-serif" font-size="11" fill="#000">blurry on retina</text>
    <text x="70" y="160" text-anchor="middle" font-family="Arial, sans-serif" font-size="11" fill="#000">slow to render</text>
  </g>
  <g stroke="#000" stroke-width="3" fill="none" stroke-linecap="round">
    <path d="M185 165 L200 165"/>
  </g>
  <polygon points="200,160 215,165 200,170" fill="#000"/>
  <g transform="translate(225,70)">
    <rect x="0" y="0" width="140" height="200" fill="#fff" stroke="#000" stroke-width="3"/>
    <rect x="20" y="28" width="100" height="56" rx="14" fill="#0085f1" stroke="#000" stroke-width="2"/>
    <text x="70" y="120" text-anchor="middle" font-family="Arial, sans-serif" font-size="11" fill="#000" font-weight="bold">CSS: ~120 B</text>
    <text x="70" y="142" text-anchor="middle" font-family="Arial, sans-serif" font-size="11" fill="#000">crisp at any DPI</text>
    <text x="70" y="160" text-anchor="middle" font-family="Arial, sans-serif" font-size="11" fill="#000">animatable</text>
  </g>
</svg>
