<svg xmlns="http://www.w3.org/2000/svg" viewBox="0 0 400 300" width="400" height="300">
  <rect width="400" height="300" fill="#fff4de"/>
  <text x="200" y="38" text-anchor="middle" font-family="sans-serif" font-size="20" fill="#5a4a2e" font-weight="bold">Pixels vs. CSS</text>
  <g transform="translate(40,80)">
    <rect x="0" y="0" width="140" height="180" rx="6" fill="#fff8eb" stroke="#a98c5a" stroke-width="2"/>
    <g transform="translate(20,30)">
      <rect x="0" y="0" width="100" height="60" fill="none" stroke="#a98c5a" stroke-width="1" stroke-dasharray="3 3"/>
      <g fill="#a98c5a">
        <rect x="2" y="2" width="6" height="6"/>
        <rect x="14" y="6" width="6" height="6"/>
        <rect x="28" y="2" width="6" height="6"/>
        <rect x="42" y="10" width="6" height="6"/>
        <rect x="56" y="4" width="6" height="6"/>
        <rect x="70" y="14" width="6" height="6"/>
        <rect x="84" y="6" width="6" height="6"/>
        <rect x="6" y="22" width="6" height="6"/>
        <rect x="22" y="30" width="6" height="6"/>
        <rect x="38" y="24" width="6" height="6"/>
        <rect x="54" y="34" width="6" height="6"/>
        <rect x="68" y="26" width="6" height="6"/>
        <rect x="80" y="38" width="6" height="6"/>
        <rect x="10" y="48" width="6" height="6"/>
        <rect x="34" y="44" width="6" height="6"/>
        <rect x="60" y="50" width="6" height="6"/>
        <rect x="78" y="46" width="6" height="6"/>
      </g>
    </g>
    <text x="70" y="120" text-anchor="middle" font-family="sans-serif" font-size="11" fill="#5a4a2e">image: 142 KB</text>
    <text x="70" y="140" text-anchor="middle" font-family="sans-serif" font-size="11" fill="#5a4a2e">blurry on retina</text>
    <text x="70" y="160" text-anchor="middle" font-family="sans-serif" font-size="11" fill="#5a4a2e">slow to render</text>
  </g>
  <g stroke="#a98c5a" stroke-width="3" fill="none" stroke-linecap="round">
    <path d="M195 170 L235 170" />
    <polygon points="235,165 247,170 235,175" fill="#a98c5a"/>
  </g>
  <g transform="translate(255,80)">
    <rect x="0" y="0" width="140" height="180" rx="6" fill="#fff8eb" stroke="#a98c5a" stroke-width="2"/>
    <rect x="20" y="30" width="100" height="60" rx="14" fill="#a98c5a" filter="url(#shadow)"/>
    <text x="70" y="120" text-anchor="middle" font-family="sans-serif" font-size="11" fill="#5a4a2e">CSS: ~120 B</text>
    <text x="70" y="140" text-anchor="middle" font-family="sans-serif" font-size="11" fill="#5a4a2e">crisp at any DPI</text>
    <text x="70" y="160" text-anchor="middle" font-family="sans-serif" font-size="11" fill="#5a4a2e">animatable</text>
  </g>
</svg>
